<?xml version="1.0" standalone="no"?>
<!DOCTYPE svg PUBLIC "-//W3C//DTD SVG 20010904//EN"
 "http://www.w3.org/TR/2001/REC-SVG-20010904/DTD/svg10.dtd">
<svg version="1.0" xmlns="http://www.w3.org/2000/svg"
 width="667.000000pt" height="667.000000pt" viewBox="0 0 667.000000 667.000000"
 preserveAspectRatio="xMidYMid meet">
<metadata>
Created by potrace 1.14, written by Peter Selinger 2001-2017
</metadata>
<g transform="translate(0.000000,667.000000) scale(0.100000,-0.100000)"
fill="#000000" stroke="none">
<path d="M3324 4982 l-21 -3 0 -1639 0 -1640 64 0 63 0 0 1639 0 1639 -42 3
c-24 2 -52 3 -64 1z"/>
<path d="M5137 4954 c-1 -1 -33 -4 -72 -8 -247 -20 -509 -116 -734 -268 -330
-224 -568 -574 -662 -977 -29 -125 -34 -178 -34 -361 0 -173 5 -229 30 -346
40 -193 145 -428 263 -594 109 -153 278 -314 435 -414 133 -85 393 -195 522
-221 58 -11 137 -24 195 -30 47 -6 290 -6 315 -1 11 2 40 7 65 10 208 29 422
104 604 213 133 79 308 231 401 346 l38 48 -24 23 c-13 12 -36 30 -50 39 l-26
17 -54 -62 c-226 -262 -508 -424 -844 -488 -155 -29 -362 -31 -505 -5 -14 3
-43 7 -65 11 -45 7 -232 66 -285 90 -84 39 -160 79 -225 121 -368 238 -621
656 -662 1098 -12 131 -5 311 17 410 5 22 12 55 15 73 8 47 64 214 77 229 6 7
8 13 4 13 -11 0 85 180 137 256 137 204 329 376 542 486 303 157 620 199 984
133 19 -3 37 -8 41 -10 4 -2 21 -7 39 -10 105 -18 308 -111 445 -203 93 -61
260 -214 314 -286 25 -32 36 -30 96 19 29 23 29 24 11 51 -9 15 -52 63 -94
107 -225 235 -526 398 -856 463 -22 4 -42 8 -45 9 -34 9 -344 26 -353 19z"/>
<path d="M1863 4921 c-6 -10 -32 -58 -58 -107 -26 -49 -73 -136 -105 -194 -52
-96 -77 -141 -182 -340 -19 -36 -46 -85 -60 -110 -14 -25 -49 -90 -78 -145
-29 -55 -60 -113 -70 -130 -9 -16 -39 -70 -65 -120 -26 -49 -60 -112 -75 -140
-27 -48 -57 -104 -135 -250 -68 -126 -91 -169 -140 -260 -26 -49 -56 -103 -65
-120 -10 -16 -41 -75 -70 -130 -63 -119 -99 -186 -151 -278 -22 -38 -39 -71
-39 -73 0 -2 -34 -65 -75 -139 -41 -75 -75 -140 -75 -145 0 -4 -3 -10 -7 -12
-5 -1 -18 -23 -31 -48 -23 -44 -75 -140 -144 -270 -20 -36 -45 -83 -57 -105
l-21 -40 272 -3 c150 -1 278 0 284 2 7 3 31 40 54 83 24 43 53 96 65 118 12
22 71 132 131 244 60 112 127 238 150 280 l41 76 711 3 710 2 65 -122 c35 -68
104 -199 153 -293 48 -93 114 -219 145 -280 l58 -110 76 -3 76 -3 -77 148
c-42 81 -87 166 -99 188 -12 22 -59 110 -103 195 -44 85 -95 184 -114 220 -81
151 -208 399 -208 404 0 3 90 6 200 6 110 0 200 3 200 6 0 6 -125 246 -202
388 -26 49 -48 92 -48 95 0 4 -11 23 -25 44 -14 20 -23 37 -21 37 3 0 -7 21
-22 48 -16 26 -61 110 -102 187 -40 77 -87 167 -105 200 -18 33 -72 134 -120
225 -48 91 -104 197 -125 235 -21 39 -72 135 -113 215 -150 287 -176 335 -184
337 -4 2 -13 -5 -20 -16z m37 -280 c0 -4 25 -54 56 -112 31 -57 90 -169 131
-249 42 -80 79 -149 83 -155 4 -5 39 -71 77 -145 39 -74 82 -155 95 -180 35
-63 181 -339 281 -530 33 -63 73 -138 88 -167 l29 -52 -126 -3 c-76 -2 -129 1
-134 7 -4 6 -36 64 -70 130 -34 66 -81 156 -105 200 -23 44 -70 134 -105 200
-112 215 -172 329 -208 395 -20 36 -52 98 -73 138 -36 71 -38 73 -50 50 -7
-12 -21 -39 -32 -58 -11 -19 -40 -73 -65 -120 -52 -98 -94 -176 -129 -240 -13
-25 -56 -106 -95 -180 -39 -74 -74 -139 -78 -145 -4 -5 -33 -59 -65 -120 -67
-128 -116 -220 -155 -290 -15 -27 -49 -90 -75 -140 -26 -49 -77 -144 -113
-210 -36 -66 -81 -149 -100 -185 -19 -36 -47 -87 -62 -115 -15 -27 -49 -90
-76 -140 -95 -176 -135 -251 -156 -292 l-21 -41 -134 -1 c-73 0 -133 2 -133 4
0 2 11 24 24 47 13 24 53 97 88 163 36 66 80 147 98 180 18 33 53 98 78 145
25 47 60 111 78 143 19 32 34 60 34 61 0 2 19 39 43 82 24 44 65 120 92 169
26 50 62 115 78 145 16 30 61 114 100 185 38 72 83 155 100 185 17 30 47 87
67 125 21 39 51 95 67 125 17 30 49 91 73 135 24 44 106 197 183 340 77 143
162 301 189 350 27 50 61 113 75 142 21 41 30 50 40 41 7 -6 13 -14 13 -17z
m22 -808 c20 -38 63 -121 97 -185 68 -131 130 -249 201 -383 63 -117 110 -209
110 -212 0 -2 -205 -3 -456 -3 l-456 0 35 63 c19 34 58 107 87 162 29 55 64
120 78 145 13 25 52 97 85 160 33 63 76 144 96 180 20 36 45 82 56 103 11 20
22 37 25 37 4 0 22 -30 42 -67z m532 -1023 l57 -110 -639 0 -640 0 35 68 c20
37 46 86 60 110 l24 42 523 0 523 0 57 -110z"/>
<path d="M5065 4508 c-154 -21 -350 -98 -490 -194 -134 -91 -268 -238 -357
-389 -34 -60 -104 -225 -114 -272 -1 -6 -7 -35 -14 -65 -61 -277 -12 -595 131
-839 88 -151 216 -286 364 -383 156 -103 249 -143 430 -182 117 -26 308 -25
442 0 239 46 498 198 649 379 l42 51 -50 37 -49 37 -87 -88 c-76 -76 -195
-170 -217 -170 -4 0 -19 -8 -33 -19 -40 -27 -177 -77 -267 -96 -86 -19 -295
-27 -354 -14 -20 4 -49 10 -66 12 -105 16 -256 81 -371 158 -77 52 -192 159
-240 224 -16 22 -31 42 -35 45 -10 9 -76 125 -93 163 -9 20 -23 52 -31 71 -58
131 -80 395 -46 556 76 359 306 646 630 782 131 56 241 77 394 78 291 2 563
-115 754 -324 l62 -68 45 34 c25 18 45 39 46 46 0 13 -180 202 -193 202 -4 0
-27 15 -52 34 -80 62 -285 155 -371 169 -16 3 -40 8 -54 11 -14 3 -38 9 -55
12 -47 10 -283 12 -350 2z"/>
</g>
</svg>
