<?xml version="1.0" standalone="no"?>
<!DOCTYPE svg PUBLIC "-//W3C//DTD SVG 20010904//EN"
 "http://www.w3.org/TR/2001/REC-SVG-20010904/DTD/svg10.dtd">
<svg version="1.0" xmlns="http://www.w3.org/2000/svg"
 width="667.000000pt" height="374.000000pt" viewBox="0 0 667.000000 374.000000"
 preserveAspectRatio="xMidYMid meet">

<g transform="translate(0.000000,374.000000) scale(0.100000,-0.100000)"
fill="#000000" stroke="none">
<path d="M3910 2434 c-213 -45 -395 -226 -446 -440 -34 -144 -3 -312 80 -437
117 -177 312 -276 521 -264 159 9 284 65 390 175 59 61 127 169 123 196 -2 12
-23 26 -64 41 l-61 23 -24 -51 c-32 -70 -130 -167 -201 -200 -31 -15 -88 -32
-126 -39 -185 -31 -382 74 -465 249 -30 64 -32 74 -32 183 0 98 4 122 23 165
97 211 324 313 545 245 112 -35 191 -106 272 -245 10 -17 14 -17 77 4 l67 22
-16 37 c-46 112 -160 230 -275 287 -126 61 -256 78 -388 49z"/>
<path d="M2615 2298 c-37 -68 -176 -313 -307 -545 -131 -232 -238 -424 -238
-427 0 -3 37 -6 83 -6 l82 0 86 153 c313 556 365 645 370 639 4 -4 97 -167
207 -362 110 -195 210 -372 222 -392 l22 -38 85 0 c46 0 82 3 80 8 -98 173
-545 968 -573 1019 -21 40 -41 73 -44 73 -3 0 -37 -55 -75 -122z"/>
<path d="M3960 2207 c-74 -18 -127 -47 -176 -99 -208 -216 -69 -567 232 -586
88 -6 158 14 228 65 l49 35 -50 50 -50 50 -40 -26 c-77 -51 -180 -45 -249 17
-99 86 -98 233 1 315 69 56 166 60 253 11 l37 -21 49 45 49 46 -24 21 c-41 36
-142 78 -199 84 -30 3 -80 -1 -110 -7z"/>
<path d="M3210 1910 l0 -260 40 0 40 0 0 260 0 260 -40 0 -40 0 0 -260z"/>
<path d="M2553 1682 c-73 -130 -149 -265 -169 -300 l-36 -63 88 3 88 3 39 70
c22 39 59 103 82 144 l43 73 82 -146 82 -146 84 0 c46 0 84 2 84 5 0 7 -319
577 -329 587 -3 4 -66 -100 -138 -230z"/>
</g>
</svg>
